<svg xmlns="http://www.w3.org/2000/svg" version="1.1" xmlns:xlink="http://www.w3.org/1999/xlink" xmlns:svgjs="http://svgjs.com/svgjs" width="540" height="360" preserveAspectRatio="none" viewBox="0 0 540 360"><g mask="url(&quot;#SvgjsMask3848&quot;)" fill="none"><rect width="540" height="360" x="0" y="0" fill="url(#SvgjsLinearGradient3849)"></rect><path d="M-33.17 225.42L-33.17 225.42" stroke="rgba(6, 75, 217, 1)" stroke-width="1.5"></path><path d="M-33.17 225.42L50.1 307.94" stroke="rgba(6, 75, 217, 1)" stroke-width="1.5"></path><path d="M-33.17 225.42L95.81 243.38" stroke="rgba(6, 75, 217, 1)" stroke-width="1.5"></path><path d="M-33.17 225.42L92.39 307.68" stroke="rgba(6, 75, 217, 1)" stroke-width="1.5"></path><path d="M-33.17 225.42L-37.42 380.21" stroke="rgba(6, 75, 217, 1)" stroke-width="1.5"></path><path d="M-33.17 225.42L29.61 378.34" stroke="rgba(6, 75, 217, 1)" stroke-width="1.5"></path><path d="M-37.42 380.21L-37.42 380.21" stroke="rgba(6, 75, 217, 1)" stroke-width="1.5"></path><path d="M-37.42 380.21L-47.6 433.7" stroke="rgba(6, 75, 217, 1)" stroke-width="1.5"></path><path d="M-37.42 380.21L29.61 378.34" stroke="rgba(6, 75, 217, 1)" stroke-width="1.5"></path><path d="M-37.42 380.21L45.12 440.9" stroke="rgba(6, 75, 217, 1)" stroke-width="1.5"></path><path d="M-37.42 380.21L50.1 307.94" stroke="rgba(6, 75, 217, 1)" stroke-width="1.5"></path><path d="M-37.42 380.21L106.74 378.32" stroke="rgba(6, 75, 217, 1)" stroke-width="1.5"></path><path d="M-37.42 380.21L92.39 307.68" stroke="rgba(6, 75, 217, 1)" stroke-width="1.5"></path><path d="M-47.6 433.7L-47.6 433.7" stroke="rgba(6, 75, 217, 1)" stroke-width="1.5"></path><path d="M-47.6 433.7L45.12 440.9" stroke="rgba(6, 75, 217, 1)" stroke-width="1.5"></path><path d="M-47.6 433.7L29.61 378.34" stroke="rgba(6, 75, 217, 1)" stroke-width="1.5"></path><path d="M-47.6 433.7L50.1 307.94" stroke="rgba(6, 75, 217, 1)" stroke-width="1.5"></path><path d="M-47.6 433.7L114.32 428.12" stroke="rgba(6, 75, 217, 1)" stroke-width="1.5"></path><path d="M-47.6 433.7L106.74 378.32" stroke="rgba(6, 75, 217, 1)" stroke-width="1.5"></path><path d="M50.1 307.94L50.1 307.94" stroke="rgba(6, 75, 217, 1)" stroke-width="1.5"></path><path d="M50.1 307.94L92.39 307.68" stroke="rgba(6, 75, 217, 1)" stroke-width="1.5"></path><path d="M50.1 307.94L29.61 378.34" stroke="rgba(6, 75, 217, 1)" stroke-width="1.5"></path><path d="M29.61 378.34L29.61 378.34" stroke="rgba(6, 75, 217, 1)" stroke-width="1.5"></path><path d="M29.61 378.34L45.12 440.9" stroke="rgba(6, 75, 217, 1)" stroke-width="1.5"></path><path d="M29.61 378.34L106.74 378.32" stroke="rgba(6, 75, 217, 1)" stroke-width="1.5"></path><path d="M29.61 378.34L92.39 307.68" stroke="rgba(6, 75, 217, 1)" stroke-width="1.5"></path><path d="M45.12 440.9L45.12 440.9" stroke="rgba(6, 75, 217, 1)" stroke-width="1.5"></path><path d="M45.12 440.9L114.32 428.12" stroke="rgba(6, 75, 217, 1)" stroke-width="1.5"></path><path d="M45.12 440.9L106.74 378.32" stroke="rgba(6, 75, 217, 1)" stroke-width="1.5"></path><path d="M45.12 440.9L153.96 448.1" stroke="rgba(6, 75, 217, 1)" stroke-width="1.5"></path><path d="M95.81 243.38L95.81 243.38" stroke="rgba(6, 75, 217, 1)" stroke-width="1.5"></path><path d="M95.81 243.38L158.38 234.63" stroke="rgba(6, 75, 217, 1)" stroke-width="1.5"></path><path d="M95.81 243.38L92.39 307.68" stroke="rgba(6, 75, 217, 1)" stroke-width="1.5"></path><path d="M95.81 243.38L50.1 307.94" stroke="rgba(6, 75, 217, 1)" stroke-width="1.5"></path><path d="M92.39 307.68L92.39 307.68" stroke="rgba(6, 75, 217, 1)" stroke-width="1.5"></path><path d="M92.39 307.68L106.74 378.32" stroke="rgba(6, 75, 217, 1)" stroke-width="1.5"></path><path d="M92.39 307.68L183.46 287.51" stroke="rgba(6, 75, 217, 1)" stroke-width="1.5"></path><path d="M92.39 307.68L158.38 234.63" stroke="rgba(6, 75, 217, 1)" stroke-width="1.5"></path><path d="M106.74 378.32L106.74 378.32" stroke="rgba(6, 75, 217, 1)" stroke-width="1.5"></path><path d="M106.74 378.32L114.32 428.12" stroke="rgba(6, 75, 217, 1)" stroke-width="1.5"></path><path d="M106.74 378.32L183.8 361.85" stroke="rgba(6, 75, 217, 1)" stroke-width="1.5"></path><path d="M106.74 378.32L153.96 448.1" stroke="rgba(6, 75, 217, 1)" stroke-width="1.5"></path><path d="M114.32 428.12L114.32 428.12" stroke="rgba(6, 75, 217, 1)" stroke-width="1.5"></path><path d="M114.32 428.12L153.96 448.1" stroke="rgba(6, 75, 217, 1)" stroke-width="1.5"></path><path d="M158.38 234.63L158.38 234.63" stroke="rgba(6, 75, 217, 1)" stroke-width="1.5"></path><path d="M158.38 234.63L183.46 287.51" stroke="rgba(6, 75, 217, 1)" stroke-width="1.5"></path><path d="M158.38 234.63L244.4 250.09" stroke="rgba(6, 75, 217, 1)" stroke-width="1.5"></path><path d="M183.46 287.51L183.46 287.51" stroke="rgba(6, 75, 217, 1)" stroke-width="1.5"></path><path d="M183.46 287.51L233.91 299.55" stroke="rgba(6, 75, 217, 1)" stroke-width="1.5"></path><path d="M183.46 287.51L244.4 250.09" stroke="rgba(6, 75, 217, 1)" stroke-width="1.5"></path><path d="M183.8 361.85L183.8 361.85" stroke="rgba(6, 75, 217, 1)" stroke-width="1.5"></path><path d="M183.8 361.85L236.95 374.71" stroke="rgba(6, 75, 217, 1)" stroke-width="1.5"></path><path d="M183.8 361.85L183.46 287.51" stroke="rgba(6, 75, 217, 1)" stroke-width="1.5"></path><path d="M153.96 448.1L153.96 448.1" stroke="rgba(6, 75, 217, 1)" stroke-width="1.5"></path><path d="M153.96 448.1L183.8 361.85" stroke="rgba(6, 75, 217, 1)" stroke-width="1.5"></path><path d="M153.96 448.1L250.58 425.13" stroke="rgba(6, 75, 217, 1)" stroke-width="1.5"></path><path d="M153.96 448.1L236.95 374.71" stroke="rgba(6, 75, 217, 1)" stroke-width="1.5"></path><path d="M244.4 250.09L244.4 250.09" stroke="rgba(6, 75, 217, 1)" stroke-width="1.5"></path><path d="M244.4 250.09L289.99 235.7" stroke="rgba(6, 75, 217, 1)" stroke-width="1.5"></path><path d="M244.4 250.09L233.91 299.55" stroke="rgba(6, 75, 217, 1)" stroke-width="1.5"></path><path d="M244.4 250.09L302.53 305.75" stroke="rgba(6, 75, 217, 1)" stroke-width="1.5"></path><path d="M244.4 250.09L287.54 165.39" stroke="rgba(6, 75, 217, 1)" stroke-width="1.5"></path><path d="M233.91 299.55L233.91 299.55" stroke="rgba(6, 75, 217, 1)" stroke-width="1.5"></path><path d="M233.91 299.55L302.53 305.75" stroke="rgba(6, 75, 217, 1)" stroke-width="1.5"></path><path d="M236.95 374.71L236.95 374.71" stroke="rgba(6, 75, 217, 1)" stroke-width="1.5"></path><path d="M236.95 374.71L250.58 425.13" stroke="rgba(6, 75, 217, 1)" stroke-width="1.5"></path><path d="M250.58 425.13L250.58 425.13" stroke="rgba(6, 75, 217, 1)" stroke-width="1.5"></path><path d="M250.58 425.13L297.07 383.02" stroke="rgba(6, 75, 217, 1)" stroke-width="1.5"></path><path d="M250.58 425.13L311.1 454.29" stroke="rgba(6, 75, 217, 1)" stroke-width="1.5"></path><path d="M250.58 425.13L183.8 361.85" stroke="rgba(6, 75, 217, 1)" stroke-width="1.5"></path><path d="M297.33 106.91L297.33 106.91" stroke="rgba(6, 75, 217, 1)" stroke-width="1.5"></path><path d="M297.33 106.91L287.54 165.39" stroke="rgba(6, 75, 217, 1)" stroke-width="1.5"></path><path d="M297.33 106.91L379.23 106.38" stroke="rgba(6, 75, 217, 1)" stroke-width="1.5"></path><path d="M297.33 106.91L382.84 158.06" stroke="rgba(6, 75, 217, 1)" stroke-width="1.5"></path><path d="M287.54 165.39L287.54 165.39" stroke="rgba(6, 75, 217, 1)" stroke-width="1.5"></path><path d="M287.54 165.39L289.99 235.7" stroke="rgba(6, 75, 217, 1)" stroke-width="1.5"></path><path d="M287.54 165.39L382.84 158.06" stroke="rgba(6, 75, 217, 1)" stroke-width="1.5"></path><path d="M289.99 235.7L289.99 235.7" stroke="rgba(6, 75, 217, 1)" stroke-width="1.5"></path><path d="M289.99 235.7L302.53 305.75" stroke="rgba(6, 75, 217, 1)" stroke-width="1.5"></path><path d="M302.53 305.75L302.53 305.75" stroke="rgba(6, 75, 217, 1)" stroke-width="1.5"></path><path d="M302.53 305.75L375.53 308.76" stroke="rgba(6, 75, 217, 1)" stroke-width="1.5"></path><path d="M302.53 305.75L297.07 383.02" stroke="rgba(6, 75, 217, 1)" stroke-width="1.5"></path><path d="M302.53 305.75L236.95 374.71" stroke="rgba(6, 75, 217, 1)" stroke-width="1.5"></path><path d="M297.07 383.02L297.07 383.02" stroke="rgba(6, 75, 217, 1)" stroke-width="1.5"></path><path d="M297.07 383.02L236.95 374.71" stroke="rgba(6, 75, 217, 1)" stroke-width="1.5"></path><path d="M311.1 454.29L311.1 454.29" stroke="rgba(6, 75, 217, 1)" stroke-width="1.5"></path><path d="M311.1 454.29L366.11 441.84" stroke="rgba(6, 75, 217, 1)" stroke-width="1.5"></path><path d="M311.1 454.29L297.07 383.02" stroke="rgba(6, 75, 217, 1)" stroke-width="1.5"></path><path d="M311.1 454.29L370.7 375.73" stroke="rgba(6, 75, 217, 1)" stroke-width="1.5"></path><path d="M311.1 454.29L236.95 374.71" stroke="rgba(6, 75, 217, 1)" stroke-width="1.5"></path><path d="M376.95 -32.55L376.95 -32.55" stroke="rgba(6, 75, 217, 1)" stroke-width="1.5"></path><path d="M376.95 -32.55L355.09 25.34" stroke="rgba(6, 75, 217, 1)" stroke-width="1.5"></path><path d="M376.95 -32.55L446.9 -40.35" stroke="rgba(6, 75, 217, 1)" stroke-width="1.5"></path><path d="M376.95 -32.55L445.12 29.52" stroke="rgba(6, 75, 217, 1)" stroke-width="1.5"></path><path d="M376.95 -32.55L502.12 -23.14" stroke="rgba(6, 75, 217, 1)" stroke-width="1.5"></path><path d="M355.09 25.34L355.09 25.34" stroke="rgba(6, 75, 217, 1)" stroke-width="1.5"></path><path d="M355.09 25.34L379.23 106.38" stroke="rgba(6, 75, 217, 1)" stroke-width="1.5"></path><path d="M355.09 25.34L445.12 29.52" stroke="rgba(6, 75, 217, 1)" stroke-width="1.5"></path><path d="M379.23 106.38L379.23 106.38" stroke="rgba(6, 75, 217, 1)" stroke-width="1.5"></path><path d="M379.23 106.38L382.84 158.06" stroke="rgba(6, 75, 217, 1)" stroke-width="1.5"></path><path d="M379.23 106.38L449.05 103.39" stroke="rgba(6, 75, 217, 1)" stroke-width="1.5"></path><path d="M382.84 158.06L382.84 158.06" stroke="rgba(6, 75, 217, 1)" stroke-width="1.5"></path><path d="M382.84 158.06L451.26 177.08" stroke="rgba(6, 75, 217, 1)" stroke-width="1.5"></path><path d="M382.84 158.06L368.23 229.14" stroke="rgba(6, 75, 217, 1)" stroke-width="1.5"></path><path d="M382.84 158.06L430.16 225.46" stroke="rgba(6, 75, 217, 1)" stroke-width="1.5"></path><path d="M368.23 229.14L368.23 229.14" stroke="rgba(6, 75, 217, 1)" stroke-width="1.5"></path><path d="M368.23 229.14L430.16 225.46" stroke="rgba(6, 75, 217, 1)" stroke-width="1.5"></path><path d="M375.53 308.76L375.53 308.76" stroke="rgba(6, 75, 217, 1)" stroke-width="1.5"></path><path d="M375.53 308.76L370.7 375.73" stroke="rgba(6, 75, 217, 1)" stroke-width="1.5"></path><path d="M375.53 308.76L444.74 313.3" stroke="rgba(6, 75, 217, 1)" stroke-width="1.5"></path><path d="M370.7 375.73L370.7 375.73" stroke="rgba(6, 75, 217, 1)" stroke-width="1.5"></path><path d="M370.7 375.73L366.11 441.84" stroke="rgba(6, 75, 217, 1)" stroke-width="1.5"></path><path d="M370.7 375.73L297.07 383.02" stroke="rgba(6, 75, 217, 1)" stroke-width="1.5"></path><path d="M366.11 441.84L366.11 441.84" stroke="rgba(6, 75, 217, 1)" stroke-width="1.5"></path><path d="M366.11 441.84L424.82 453.93" stroke="rgba(6, 75, 217, 1)" stroke-width="1.5"></path><path d="M446.9 -40.35L446.9 -40.35" stroke="rgba(6, 75, 217, 1)" stroke-width="1.5"></path><path d="M446.9 -40.35L502.12 -23.14" stroke="rgba(6, 75, 217, 1)" stroke-width="1.5"></path><path d="M446.9 -40.35L445.12 29.52" stroke="rgba(6, 75, 217, 1)" stroke-width="1.5"></path><path d="M445.12 29.52L445.12 29.52" stroke="rgba(6, 75, 217, 1)" stroke-width="1.5"></path><path d="M445.12 29.52L502.14 21.08" stroke="rgba(6, 75, 217, 1)" stroke-width="1.5"></path><path d="M445.12 29.52L449.05 103.39" stroke="rgba(6, 75, 217, 1)" stroke-width="1.5"></path><path d="M445.12 29.52L502.12 -23.14" stroke="rgba(6, 75, 217, 1)" stroke-width="1.5"></path><path d="M449.05 103.39L449.05 103.39" stroke="rgba(6, 75, 217, 1)" stroke-width="1.5"></path><path d="M449.05 103.39L497.24 108.39" stroke="rgba(6, 75, 217, 1)" stroke-width="1.5"></path><path d="M449.05 103.39L490.93 153.43" stroke="rgba(6, 75, 217, 1)" stroke-width="1.5"></path><path d="M449.05 103.39L451.26 177.08" stroke="rgba(6, 75, 217, 1)" stroke-width="1.5"></path><path d="M451.26 177.08L451.26 177.08" stroke="rgba(6, 75, 217, 1)" stroke-width="1.5"></path><path d="M451.26 177.08L490.93 153.43" stroke="rgba(6, 75, 217, 1)" stroke-width="1.5"></path><path d="M451.26 177.08L430.16 225.46" stroke="rgba(6, 75, 217, 1)" stroke-width="1.5"></path><path d="M451.26 177.08L497.24 108.39" stroke="rgba(6, 75, 217, 1)" stroke-width="1.5"></path><path d="M430.16 225.46L430.16 225.46" stroke="rgba(6, 75, 217, 1)" stroke-width="1.5"></path><path d="M444.74 313.3L444.74 313.3" stroke="rgba(6, 75, 217, 1)" stroke-width="1.5"></path><path d="M444.74 313.3L445.35 358.99" stroke="rgba(6, 75, 217, 1)" stroke-width="1.5"></path><path d="M444.74 313.3L506.47 313.08" stroke="rgba(6, 75, 217, 1)" stroke-width="1.5"></path><path d="M445.35 358.99L445.35 358.99" stroke="rgba(6, 75, 217, 1)" stroke-width="1.5"></path><path d="M445.35 358.99L495.49 372.61" stroke="rgba(6, 75, 217, 1)" stroke-width="1.5"></path><path d="M445.35 358.99L506.47 313.08" stroke="rgba(6, 75, 217, 1)" stroke-width="1.5"></path><path d="M445.35 358.99L370.7 375.73" stroke="rgba(6, 75, 217, 1)" stroke-width="1.5"></path><path d="M445.35 358.99L375.53 308.76" stroke="rgba(6, 75, 217, 1)" stroke-width="1.5"></path><path d="M445.35 358.99L424.82 453.93" stroke="rgba(6, 75, 217, 1)" stroke-width="1.5"></path><path d="M424.82 453.93L424.82 453.93" stroke="rgba(6, 75, 217, 1)" stroke-width="1.5"></path><path d="M424.82 453.93L517.28 437.67" stroke="rgba(6, 75, 217, 1)" stroke-width="1.5"></path><path d="M424.82 453.93L370.7 375.73" stroke="rgba(6, 75, 217, 1)" stroke-width="1.5"></path><path d="M424.82 453.93L495.49 372.61" stroke="rgba(6, 75, 217, 1)" stroke-width="1.5"></path><path d="M424.82 453.93L311.1 454.29" stroke="rgba(6, 75, 217, 1)" stroke-width="1.5"></path><path d="M502.12 -23.14L502.12 -23.14" stroke="rgba(6, 75, 217, 1)" stroke-width="1.5"></path><path d="M502.12 -23.14L502.14 21.08" stroke="rgba(6, 75, 217, 1)" stroke-width="1.5"></path><path d="M502.12 -23.14L570.44 -39.93" stroke="rgba(6, 75, 217, 1)" stroke-width="1.5"></path><path d="M502.14 21.08L502.14 21.08" stroke="rgba(6, 75, 217, 1)" stroke-width="1.5"></path><path d="M502.14 21.08L564.18 44.55" stroke="rgba(6, 75, 217, 1)" stroke-width="1.5"></path><path d="M502.14 21.08L446.9 -40.35" stroke="rgba(6, 75, 217, 1)" stroke-width="1.5"></path><path d="M497.24 108.39L497.24 108.39" stroke="rgba(6, 75, 217, 1)" stroke-width="1.5"></path><path d="M497.24 108.39L490.93 153.43" stroke="rgba(6, 75, 217, 1)" stroke-width="1.5"></path><path d="M497.24 108.39L560.21 105.02" stroke="rgba(6, 75, 217, 1)" stroke-width="1.5"></path><path d="M497.24 108.39L502.14 21.08" stroke="rgba(6, 75, 217, 1)" stroke-width="1.5"></path><path d="M490.93 153.43L490.93 153.43" stroke="rgba(6, 75, 217, 1)" stroke-width="1.5"></path><path d="M490.93 153.43L569.5 167.5" stroke="rgba(6, 75, 217, 1)" stroke-width="1.5"></path><path d="M490.93 153.43L522.82 227.52" stroke="rgba(6, 75, 217, 1)" stroke-width="1.5"></path><path d="M522.82 227.52L522.82 227.52" stroke="rgba(6, 75, 217, 1)" stroke-width="1.5"></path><path d="M522.82 227.52L577.84 238.01" stroke="rgba(6, 75, 217, 1)" stroke-width="1.5"></path><path d="M522.82 227.52L569.5 167.5" stroke="rgba(6, 75, 217, 1)" stroke-width="1.5"></path><path d="M522.82 227.52L506.47 313.08" stroke="rgba(6, 75, 217, 1)" stroke-width="1.5"></path><path d="M522.82 227.52L451.26 177.08" stroke="rgba(6, 75, 217, 1)" stroke-width="1.5"></path><path d="M522.82 227.52L430.16 225.46" stroke="rgba(6, 75, 217, 1)" stroke-width="1.5"></path><path d="M506.47 313.08L506.47 313.08" stroke="rgba(6, 75, 217, 1)" stroke-width="1.5"></path><path d="M506.47 313.08L495.49 372.61" stroke="rgba(6, 75, 217, 1)" stroke-width="1.5"></path><path d="M506.47 313.08L571.16 314.85" stroke="rgba(6, 75, 217, 1)" stroke-width="1.5"></path><path d="M495.49 372.61L495.49 372.61" stroke="rgba(6, 75, 217, 1)" stroke-width="1.5"></path><path d="M495.49 372.61L559.59 357.65" stroke="rgba(6, 75, 217, 1)" stroke-width="1.5"></path><path d="M495.49 372.61L517.28 437.67" stroke="rgba(6, 75, 217, 1)" stroke-width="1.5"></path><path d="M517.28 437.67L517.28 437.67" stroke="rgba(6, 75, 217, 1)" stroke-width="1.5"></path><path d="M517.28 437.67L570.59 422.69" stroke="rgba(6, 75, 217, 1)" stroke-width="1.5"></path><path d="M570.44 -39.93L570.44 -39.93" stroke="rgba(6, 75, 217, 1)" stroke-width="1.5"></path><path d="M570.44 -39.93L564.18 44.55" stroke="rgba(6, 75, 217, 1)" stroke-width="1.5"></path><path d="M570.44 -39.93L502.14 21.08" stroke="rgba(6, 75, 217, 1)" stroke-width="1.5"></path><path d="M570.44 -39.93L446.9 -40.35" stroke="rgba(6, 75, 217, 1)" stroke-width="1.5"></path><path d="M564.18 44.55L564.18 44.55" stroke="rgba(6, 75, 217, 1)" stroke-width="1.5"></path><path d="M564.18 44.55L560.21 105.02" stroke="rgba(6, 75, 217, 1)" stroke-width="1.5"></path><path d="M564.18 44.55L502.12 -23.14" stroke="rgba(6, 75, 217, 1)" stroke-width="1.5"></path><path d="M564.18 44.55L497.24 108.39" stroke="rgba(6, 75, 217, 1)" stroke-width="1.5"></path><path d="M560.21 105.02L560.21 105.02" stroke="rgba(6, 75, 217, 1)" stroke-width="1.5"></path><path d="M560.21 105.02L569.5 167.5" stroke="rgba(6, 75, 217, 1)" stroke-width="1.5"></path><path d="M560.21 105.02L490.93 153.43" stroke="rgba(6, 75, 217, 1)" stroke-width="1.5"></path><path d="M560.21 105.02L502.14 21.08" stroke="rgba(6, 75, 217, 1)" stroke-width="1.5"></path><path d="M560.21 105.02L449.05 103.39" stroke="rgba(6, 75, 217, 1)" stroke-width="1.5"></path><path d="M569.5 167.5L569.5 167.5" stroke="rgba(6, 75, 217, 1)" stroke-width="1.5"></path><path d="M569.5 167.5L577.84 238.01" stroke="rgba(6, 75, 217, 1)" stroke-width="1.5"></path><path d="M577.84 238.01L577.84 238.01" stroke="rgba(6, 75, 217, 1)" stroke-width="1.5"></path><path d="M577.84 238.01L571.16 314.85" stroke="rgba(6, 75, 217, 1)" stroke-width="1.5"></path><path d="M577.84 238.01L506.47 313.08" stroke="rgba(6, 75, 217, 1)" stroke-width="1.5"></path><path d="M577.84 238.01L559.59 357.65" stroke="rgba(6, 75, 217, 1)" stroke-width="1.5"></path><path d="M571.16 314.85L571.16 314.85" stroke="rgba(6, 75, 217, 1)" stroke-width="1.5"></path><path d="M571.16 314.85L559.59 357.65" stroke="rgba(6, 75, 217, 1)" stroke-width="1.5"></path><path d="M571.16 314.85L495.49 372.61" stroke="rgba(6, 75, 217, 1)" stroke-width="1.5"></path><path d="M559.59 357.65L559.59 357.65" stroke="rgba(6, 75, 217, 1)" stroke-width="1.5"></path><path d="M559.59 357.65L570.59 422.69" stroke="rgba(6, 75, 217, 1)" stroke-width="1.5"></path><path d="M559.59 357.65L506.47 313.08" stroke="rgba(6, 75, 217, 1)" stroke-width="1.5"></path><path d="M570.59 422.69L570.59 422.69" stroke="rgba(6, 75, 217, 1)" stroke-width="1.5"></path><path d="M570.59 422.69L495.49 372.61" stroke="rgba(6, 75, 217, 1)" stroke-width="1.5"></path><circle r="5" cx="-33.17" cy="225.42" fill="rgba(6, 75, 217, 1)"></circle><circle r="5" cx="-37.42" cy="380.21" fill="rgba(6, 75, 217, 1)"></circle><circle r="5" cx="-47.6" cy="433.7" fill="rgba(6, 75, 217, 1)"></circle><circle r="5" cx="50.1" cy="307.94" fill="rgba(6, 75, 217, 1)"></circle><circle r="5" cx="29.61" cy="378.34" fill="rgba(6, 75, 217, 1)"></circle><circle r="5" cx="45.12" cy="440.9" fill="rgba(6, 75, 217, 1)"></circle><circle r="5" cx="95.81" cy="243.38" fill="rgba(6, 75, 217, 1)"></circle><circle r="5" cx="92.39" cy="307.68" fill="rgba(6, 75, 217, 1)"></circle><circle r="5" cx="106.74" cy="378.32" fill="rgba(6, 75, 217, 1)"></circle><circle r="5" cx="114.32" cy="428.12" fill="rgba(6, 75, 217, 1)"></circle><circle r="5" cx="158.38" cy="234.63" fill="rgba(6, 75, 217, 1)"></circle><circle r="5" cx="183.46" cy="287.51" fill="rgba(6, 75, 217, 1)"></circle><circle r="5" cx="183.8" cy="361.85" fill="rgba(6, 75, 217, 1)"></circle><circle r="5" cx="153.96" cy="448.1" fill="rgba(6, 75, 217, 1)"></circle><circle r="5" cx="244.4" cy="250.09" fill="rgba(6, 75, 217, 1)"></circle><circle r="5" cx="233.91" cy="299.55" fill="rgba(6, 75, 217, 1)"></circle><circle r="5" cx="236.95" cy="374.71" fill="rgba(6, 75, 217, 1)"></circle><circle r="5" cx="250.58" cy="425.13" fill="rgba(6, 75, 217, 1)"></circle><circle r="5" cx="297.33" cy="106.91" fill="rgba(6, 75, 217, 1)"></circle><circle r="5" cx="287.54" cy="165.39" fill="rgba(6, 75, 217, 1)"></circle><circle r="5" cx="289.99" cy="235.7" fill="rgba(6, 75, 217, 1)"></circle><circle r="5" cx="302.53" cy="305.75" fill="rgba(6, 75, 217, 1)"></circle><circle r="5" cx="297.07" cy="383.02" fill="rgba(6, 75, 217, 1)"></circle><circle r="5" cx="311.1" cy="454.29" fill="rgba(6, 75, 217, 1)"></circle><circle r="5" cx="376.95" cy="-32.55" fill="rgba(6, 75, 217, 1)"></circle><circle r="5" cx="355.09" cy="25.34" fill="rgba(6, 75, 217, 1)"></circle><circle r="5" cx="379.23" cy="106.38" fill="rgba(6, 75, 217, 1)"></circle><circle r="5" cx="382.84" cy="158.06" fill="rgba(6, 75, 217, 1)"></circle><circle r="5" cx="368.23" cy="229.14" fill="rgba(6, 75, 217, 1)"></circle><circle r="5" cx="375.53" cy="308.76" fill="rgba(6, 75, 217, 1)"></circle><circle r="5" cx="370.7" cy="375.73" fill="rgba(6, 75, 217, 1)"></circle><circle r="5" cx="366.11" cy="441.84" fill="rgba(6, 75, 217, 1)"></circle><circle r="5" cx="446.9" cy="-40.35" fill="rgba(6, 75, 217, 1)"></circle><circle r="5" cx="445.12" cy="29.52" fill="rgba(6, 75, 217, 1)"></circle><circle r="5" cx="449.05" cy="103.39" fill="rgba(6, 75, 217, 1)"></circle><circle r="5" cx="451.26" cy="177.08" fill="rgba(6, 75, 217, 1)"></circle><circle r="5" cx="430.16" cy="225.46" fill="rgba(6, 75, 217, 1)"></circle><circle r="5" cx="444.74" cy="313.3" fill="rgba(6, 75, 217, 1)"></circle><circle r="5" cx="445.35" cy="358.99" fill="rgba(6, 75, 217, 1)"></circle><circle r="5" cx="424.82" cy="453.93" fill="rgba(6, 75, 217, 1)"></circle><circle r="5" cx="502.12" cy="-23.14" fill="rgba(6, 75, 217, 1)"></circle><circle r="5" cx="502.14" cy="21.08" fill="rgba(6, 75, 217, 1)"></circle><circle r="5" cx="497.24" cy="108.39" fill="rgba(6, 75, 217, 1)"></circle><circle r="5" cx="490.93" cy="153.43" fill="rgba(6, 75, 217, 1)"></circle><circle r="5" cx="522.82" cy="227.52" fill="rgba(6, 75, 217, 1)"></circle><circle r="5" cx="506.47" cy="313.08" fill="rgba(6, 75, 217, 1)"></circle><circle r="5" cx="495.49" cy="372.61" fill="rgba(6, 75, 217, 1)"></circle><circle r="5" cx="517.28" cy="437.67" fill="rgba(6, 75, 217, 1)"></circle><circle r="5" cx="570.44" cy="-39.93" fill="rgba(6, 75, 217, 1)"></circle><circle r="5" cx="564.18" cy="44.55" fill="rgba(6, 75, 217, 1)"></circle><circle r="5" cx="560.21" cy="105.02" fill="rgba(6, 75, 217, 1)"></circle><circle r="5" cx="569.5" cy="167.5" fill="rgba(6, 75, 217, 1)"></circle><circle r="5" cx="577.84" cy="238.01" fill="rgba(6, 75, 217, 1)"></circle><circle r="5" cx="571.16" cy="314.85" fill="rgba(6, 75, 217, 1)"></circle><circle r="5" cx="559.59" cy="357.65" fill="rgba(6, 75, 217, 1)"></circle><circle r="5" cx="570.59" cy="422.69" fill="rgba(6, 75, 217, 1)"></circle><path d="M-18.11 304.63L-18.11 304.63" stroke="hsl(228.5, 77.2%, 51.5%)" stroke-width="1.5"></path><path d="M-18.11 304.63L28.19 307.84" stroke="hsl(228.5, 77.2%, 51.5%)" stroke-width="1.5"></path><path d="M-18.11 304.63L-43.2 374.47" stroke="hsl(228.5, 77.2%, 51.5%)" stroke-width="1.5"></path><path d="M-18.11 304.63L25.56 365.77" stroke="hsl(228.5, 77.2%, 51.5%)" stroke-width="1.5"></path><path d="M-18.11 304.63L107.1 293.76" stroke="hsl(228.5, 77.2%, 51.5%)" stroke-width="1.5"></path><path d="M-18.11 304.63L-21.1 439.8" stroke="hsl(228.5, 77.2%, 51.5%)" stroke-width="1.5"></path><path d="M25.56 365.77L25.56 365.77" stroke="hsl(228.5, 77.2%, 51.5%)" stroke-width="1.5"></path><path d="M25.56 365.77L28.19 307.84" stroke="hsl(228.5, 77.2%, 51.5%)" stroke-width="1.5"></path><path d="M25.56 365.77L-43.2 374.47" stroke="hsl(228.5, 77.2%, 51.5%)" stroke-width="1.5"></path><path d="M246.64 309.99L246.64 309.99" stroke="hsl(228.5, 77.2%, 51.5%)" stroke-width="1.5"></path><path d="M246.64 309.99L184.8 316.23" stroke="hsl(228.5, 77.2%, 51.5%)" stroke-width="1.5"></path><path d="M246.64 309.99L312.5 317.33" stroke="hsl(228.5, 77.2%, 51.5%)" stroke-width="1.5"></path><path d="M246.64 309.99L300.24 242.61" stroke="hsl(228.5, 77.2%, 51.5%)" stroke-width="1.5"></path><path d="M381.51 303.03L381.51 303.03" stroke="hsl(228.5, 77.2%, 51.5%)" stroke-width="1.5"></path><path d="M381.51 303.03L445.43 307.97" stroke="hsl(228.5, 77.2%, 51.5%)" stroke-width="1.5"></path><path d="M381.51 303.03L312.5 317.33" stroke="hsl(228.5, 77.2%, 51.5%)" stroke-width="1.5"></path><path d="M381.51 303.03L372 227.95" stroke="hsl(228.5, 77.2%, 51.5%)" stroke-width="1.5"></path><path d="M381.51 303.03L364.2 387.59" stroke="hsl(228.5, 77.2%, 51.5%)" stroke-width="1.5"></path><path d="M381.51 303.03L424.17 379.96" stroke="hsl(228.5, 77.2%, 51.5%)" stroke-width="1.5"></path><path d="M519.9 234.04L519.9 234.04" stroke="hsl(228.5, 77.2%, 51.5%)" stroke-width="1.5"></path><path d="M519.9 234.04L571.35 226.78" stroke="hsl(228.5, 77.2%, 51.5%)" stroke-width="1.5"></path><path d="M519.9 234.04L453.94 238.82" stroke="hsl(228.5, 77.2%, 51.5%)" stroke-width="1.5"></path><path d="M519.9 234.04L520.53 300.4" stroke="hsl(228.5, 77.2%, 51.5%)" stroke-width="1.5"></path><path d="M519.9 234.04L502.47 161.47" stroke="hsl(228.5, 77.2%, 51.5%)" stroke-width="1.5"></path><path d="M519.9 234.04L575.6 302.9" stroke="hsl(228.5, 77.2%, 51.5%)" stroke-width="1.5"></path><path d="M519.9 234.04L449.5 179.57" stroke="hsl(228.5, 77.2%, 51.5%)" stroke-width="1.5"></path><path d="M-43.2 374.47L-43.2 374.47" stroke="hsl(228.5, 77.2%, 51.5%)" stroke-width="1.5"></path><path d="M-43.2 374.47L-21.1 439.8" stroke="hsl(228.5, 77.2%, 51.5%)" stroke-width="1.5"></path><path d="M-43.2 374.47L28.19 307.84" stroke="hsl(228.5, 77.2%, 51.5%)" stroke-width="1.5"></path><path d="M-43.2 374.47L35.66 446.08" stroke="hsl(228.5, 77.2%, 51.5%)" stroke-width="1.5"></path><path d="M-21.1 439.8L-21.1 439.8" stroke="hsl(228.5, 77.2%, 51.5%)" stroke-width="1.5"></path><path d="M-21.1 439.8L35.66 446.08" stroke="hsl(228.5, 77.2%, 51.5%)" stroke-width="1.5"></path><path d="M-21.1 439.8L25.56 365.77" stroke="hsl(228.5, 77.2%, 51.5%)" stroke-width="1.5"></path><path d="M28.19 307.84L28.19 307.84" stroke="hsl(228.5, 77.2%, 51.5%)" stroke-width="1.5"></path><path d="M28.19 307.84L107.1 293.76" stroke="hsl(228.5, 77.2%, 51.5%)" stroke-width="1.5"></path><path d="M28.19 307.84L92.71 426.35" stroke="hsl(228.5, 77.2%, 51.5%)" stroke-width="1.5"></path><path d="M35.66 446.08L35.66 446.08" stroke="hsl(228.5, 77.2%, 51.5%)" stroke-width="1.5"></path><path d="M35.66 446.08L92.71 426.35" stroke="hsl(228.5, 77.2%, 51.5%)" stroke-width="1.5"></path><path d="M35.66 446.08L25.56 365.77" stroke="hsl(228.5, 77.2%, 51.5%)" stroke-width="1.5"></path><path d="M35.66 446.08L161.58 442.59" stroke="hsl(228.5, 77.2%, 51.5%)" stroke-width="1.5"></path><path d="M35.66 446.08L28.19 307.84" stroke="hsl(228.5, 77.2%, 51.5%)" stroke-width="1.5"></path><path d="M107.1 293.76L107.1 293.76" stroke="hsl(228.5, 77.2%, 51.5%)" stroke-width="1.5"></path><path d="M107.1 293.76L184.8 316.23" stroke="hsl(228.5, 77.2%, 51.5%)" stroke-width="1.5"></path><path d="M107.1 293.76L25.56 365.77" stroke="hsl(228.5, 77.2%, 51.5%)" stroke-width="1.5"></path><path d="M92.71 426.35L92.71 426.35" stroke="hsl(228.5, 77.2%, 51.5%)" stroke-width="1.5"></path><path d="M92.71 426.35L161.58 442.59" stroke="hsl(228.5, 77.2%, 51.5%)" stroke-width="1.5"></path><path d="M184.8 316.23L184.8 316.23" stroke="hsl(228.5, 77.2%, 51.5%)" stroke-width="1.5"></path><path d="M184.8 316.23L171.83 384.01" stroke="hsl(228.5, 77.2%, 51.5%)" stroke-width="1.5"></path><path d="M171.83 384.01L171.83 384.01" stroke="hsl(228.5, 77.2%, 51.5%)" stroke-width="1.5"></path><path d="M171.83 384.01L161.58 442.59" stroke="hsl(228.5, 77.2%, 51.5%)" stroke-width="1.5"></path><path d="M161.58 442.59L161.58 442.59" stroke="hsl(228.5, 77.2%, 51.5%)" stroke-width="1.5"></path><path d="M161.58 442.59L227.04 446.11" stroke="hsl(228.5, 77.2%, 51.5%)" stroke-width="1.5"></path><path d="M161.58 442.59L184.8 316.23" stroke="hsl(228.5, 77.2%, 51.5%)" stroke-width="1.5"></path><path d="M161.58 442.59L313.9 444.86" stroke="hsl(228.5, 77.2%, 51.5%)" stroke-width="1.5"></path><path d="M227.04 446.11L227.04 446.11" stroke="hsl(228.5, 77.2%, 51.5%)" stroke-width="1.5"></path><path d="M227.04 446.11L171.83 384.01" stroke="hsl(228.5, 77.2%, 51.5%)" stroke-width="1.5"></path><path d="M227.04 446.11L313.9 444.86" stroke="hsl(228.5, 77.2%, 51.5%)" stroke-width="1.5"></path><path d="M227.04 446.11L309.48 379.84" stroke="hsl(228.5, 77.2%, 51.5%)" stroke-width="1.5"></path><path d="M300.24 242.61L300.24 242.61" stroke="hsl(228.5, 77.2%, 51.5%)" stroke-width="1.5"></path><path d="M300.24 242.61L372 227.95" stroke="hsl(228.5, 77.2%, 51.5%)" stroke-width="1.5"></path><path d="M300.24 242.61L312.5 317.33" stroke="hsl(228.5, 77.2%, 51.5%)" stroke-width="1.5"></path><path d="M300.24 242.61L374.39 181.46" stroke="hsl(228.5, 77.2%, 51.5%)" stroke-width="1.5"></path><path d="M300.24 242.61L381.51 303.03" stroke="hsl(228.5, 77.2%, 51.5%)" stroke-width="1.5"></path><path d="M300.24 242.61L184.8 316.23" stroke="hsl(228.5, 77.2%, 51.5%)" stroke-width="1.5"></path><path d="M312.5 317.33L312.5 317.33" stroke="hsl(228.5, 77.2%, 51.5%)" stroke-width="1.5"></path><path d="M312.5 317.33L309.48 379.84" stroke="hsl(228.5, 77.2%, 51.5%)" stroke-width="1.5"></path><path d="M309.48 379.84L309.48 379.84" stroke="hsl(228.5, 77.2%, 51.5%)" stroke-width="1.5"></path><path d="M309.48 379.84L364.2 387.59" stroke="hsl(228.5, 77.2%, 51.5%)" stroke-width="1.5"></path><path d="M309.48 379.84L313.9 444.86" stroke="hsl(228.5, 77.2%, 51.5%)" stroke-width="1.5"></path><path d="M309.48 379.84L365.69 436.12" stroke="hsl(228.5, 77.2%, 51.5%)" stroke-width="1.5"></path><path d="M309.48 379.84L246.64 309.99" stroke="hsl(228.5, 77.2%, 51.5%)" stroke-width="1.5"></path><path d="M309.48 379.84L381.51 303.03" stroke="hsl(228.5, 77.2%, 51.5%)" stroke-width="1.5"></path><path d="M313.9 444.86L313.9 444.86" stroke="hsl(228.5, 77.2%, 51.5%)" stroke-width="1.5"></path><path d="M313.9 444.86L365.69 436.12" stroke="hsl(228.5, 77.2%, 51.5%)" stroke-width="1.5"></path><path d="M374.39 181.46L374.39 181.46" stroke="hsl(228.5, 77.2%, 51.5%)" stroke-width="1.5"></path><path d="M374.39 181.46L372 227.95" stroke="hsl(228.5, 77.2%, 51.5%)" stroke-width="1.5"></path><path d="M374.39 181.46L449.5 179.57" stroke="hsl(228.5, 77.2%, 51.5%)" stroke-width="1.5"></path><path d="M372 227.95L372 227.95" stroke="hsl(228.5, 77.2%, 51.5%)" stroke-width="1.5"></path><path d="M372 227.95L453.94 238.82" stroke="hsl(228.5, 77.2%, 51.5%)" stroke-width="1.5"></path><path d="M364.2 387.59L364.2 387.59" stroke="hsl(228.5, 77.2%, 51.5%)" stroke-width="1.5"></path><path d="M364.2 387.59L365.69 436.12" stroke="hsl(228.5, 77.2%, 51.5%)" stroke-width="1.5"></path><path d="M364.2 387.59L424.17 379.96" stroke="hsl(228.5, 77.2%, 51.5%)" stroke-width="1.5"></path><path d="M365.69 436.12L365.69 436.12" stroke="hsl(228.5, 77.2%, 51.5%)" stroke-width="1.5"></path><path d="M437.41 -38.44L437.41 -38.44" stroke="hsl(228.5, 77.2%, 51.5%)" stroke-width="1.5"></path><path d="M437.41 -38.44L438.55 28.09" stroke="hsl(228.5, 77.2%, 51.5%)" stroke-width="1.5"></path><path d="M437.41 -38.44L505.33 26.97" stroke="hsl(228.5, 77.2%, 51.5%)" stroke-width="1.5"></path><path d="M437.41 -38.44L558.77 -45.84" stroke="hsl(228.5, 77.2%, 51.5%)" stroke-width="1.5"></path><path d="M437.41 -38.44L503 99.27" stroke="hsl(228.5, 77.2%, 51.5%)" stroke-width="1.5"></path><path d="M438.55 28.09L438.55 28.09" stroke="hsl(228.5, 77.2%, 51.5%)" stroke-width="1.5"></path><path d="M438.55 28.09L505.33 26.97" stroke="hsl(228.5, 77.2%, 51.5%)" stroke-width="1.5"></path><path d="M438.55 28.09L503 99.27" stroke="hsl(228.5, 77.2%, 51.5%)" stroke-width="1.5"></path><path d="M438.55 28.09L558.77 -45.84" stroke="hsl(228.5, 77.2%, 51.5%)" stroke-width="1.5"></path><path d="M438.55 28.09L572.04 85.49" stroke="hsl(228.5, 77.2%, 51.5%)" stroke-width="1.5"></path><path d="M449.5 179.57L449.5 179.57" stroke="hsl(228.5, 77.2%, 51.5%)" stroke-width="1.5"></path><path d="M449.5 179.57L502.47 161.47" stroke="hsl(228.5, 77.2%, 51.5%)" stroke-width="1.5"></path><path d="M449.5 179.57L453.94 238.82" stroke="hsl(228.5, 77.2%, 51.5%)" stroke-width="1.5"></path><path d="M449.5 179.57L372 227.95" stroke="hsl(228.5, 77.2%, 51.5%)" stroke-width="1.5"></path><path d="M449.5 179.57L503 99.27" stroke="hsl(228.5, 77.2%, 51.5%)" stroke-width="1.5"></path><path d="M453.94 238.82L453.94 238.82" stroke="hsl(228.5, 77.2%, 51.5%)" stroke-width="1.5"></path><path d="M453.94 238.82L445.43 307.97" stroke="hsl(228.5, 77.2%, 51.5%)" stroke-width="1.5"></path><path d="M453.94 238.82L520.53 300.4" stroke="hsl(228.5, 77.2%, 51.5%)" stroke-width="1.5"></path><path d="M453.94 238.82L502.47 161.47" stroke="hsl(228.5, 77.2%, 51.5%)" stroke-width="1.5"></path><path d="M445.43 307.97L445.43 307.97" stroke="hsl(228.5, 77.2%, 51.5%)" stroke-width="1.5"></path><path d="M445.43 307.97L424.17 379.96" stroke="hsl(228.5, 77.2%, 51.5%)" stroke-width="1.5"></path><path d="M445.43 307.97L520.53 300.4" stroke="hsl(228.5, 77.2%, 51.5%)" stroke-width="1.5"></path><path d="M445.43 307.97L519.9 234.04" stroke="hsl(228.5, 77.2%, 51.5%)" stroke-width="1.5"></path><path d="M445.43 307.97L523.1 382.55" stroke="hsl(228.5, 77.2%, 51.5%)" stroke-width="1.5"></path><path d="M424.17 379.96L424.17 379.96" stroke="hsl(228.5, 77.2%, 51.5%)" stroke-width="1.5"></path><path d="M424.17 379.96L448.04 441.71" stroke="hsl(228.5, 77.2%, 51.5%)" stroke-width="1.5"></path><path d="M448.04 441.71L448.04 441.71" stroke="hsl(228.5, 77.2%, 51.5%)" stroke-width="1.5"></path><path d="M448.04 441.71L496.57 424.85" stroke="hsl(228.5, 77.2%, 51.5%)" stroke-width="1.5"></path><path d="M448.04 441.71L365.69 436.12" stroke="hsl(228.5, 77.2%, 51.5%)" stroke-width="1.5"></path><path d="M448.04 441.71L523.1 382.55" stroke="hsl(228.5, 77.2%, 51.5%)" stroke-width="1.5"></path><path d="M505.33 26.97L505.33 26.97" stroke="hsl(228.5, 77.2%, 51.5%)" stroke-width="1.5"></path><path d="M505.33 26.97L503 99.27" stroke="hsl(228.5, 77.2%, 51.5%)" stroke-width="1.5"></path><path d="M505.33 26.97L590.13 29.19" stroke="hsl(228.5, 77.2%, 51.5%)" stroke-width="1.5"></path><path d="M505.33 26.97L572.04 85.49" stroke="hsl(228.5, 77.2%, 51.5%)" stroke-width="1.5"></path><path d="M505.33 26.97L558.77 -45.84" stroke="hsl(228.5, 77.2%, 51.5%)" stroke-width="1.5"></path><path d="M503 99.27L503 99.27" stroke="hsl(228.5, 77.2%, 51.5%)" stroke-width="1.5"></path><path d="M503 99.27L502.47 161.47" stroke="hsl(228.5, 77.2%, 51.5%)" stroke-width="1.5"></path><path d="M503 99.27L572.04 85.49" stroke="hsl(228.5, 77.2%, 51.5%)" stroke-width="1.5"></path><path d="M502.47 161.47L502.47 161.47" stroke="hsl(228.5, 77.2%, 51.5%)" stroke-width="1.5"></path><path d="M502.47 161.47L575.87 163.08" stroke="hsl(228.5, 77.2%, 51.5%)" stroke-width="1.5"></path><path d="M520.53 300.4L520.53 300.4" stroke="hsl(228.5, 77.2%, 51.5%)" stroke-width="1.5"></path><path d="M520.53 300.4L575.6 302.9" stroke="hsl(228.5, 77.2%, 51.5%)" stroke-width="1.5"></path><path d="M523.1 382.55L523.1 382.55" stroke="hsl(228.5, 77.2%, 51.5%)" stroke-width="1.5"></path><path d="M523.1 382.55L496.57 424.85" stroke="hsl(228.5, 77.2%, 51.5%)" stroke-width="1.5"></path><path d="M523.1 382.55L562.16 440.92" stroke="hsl(228.5, 77.2%, 51.5%)" stroke-width="1.5"></path><path d="M496.57 424.85L496.57 424.85" stroke="hsl(228.5, 77.2%, 51.5%)" stroke-width="1.5"></path><path d="M496.57 424.85L562.16 440.92" stroke="hsl(228.5, 77.2%, 51.5%)" stroke-width="1.5"></path><path d="M496.57 424.85L424.17 379.96" stroke="hsl(228.5, 77.2%, 51.5%)" stroke-width="1.5"></path><path d="M558.77 -45.84L558.77 -45.84" stroke="hsl(228.5, 77.2%, 51.5%)" stroke-width="1.5"></path><path d="M558.77 -45.84L590.13 29.19" stroke="hsl(228.5, 77.2%, 51.5%)" stroke-width="1.5"></path><path d="M558.77 -45.84L572.04 85.49" stroke="hsl(228.5, 77.2%, 51.5%)" stroke-width="1.5"></path><path d="M558.77 -45.84L503 99.27" stroke="hsl(228.5, 77.2%, 51.5%)" stroke-width="1.5"></path><path d="M590.13 29.19L590.13 29.19" stroke="hsl(228.5, 77.2%, 51.5%)" stroke-width="1.5"></path><path d="M590.13 29.19L572.04 85.49" stroke="hsl(228.5, 77.2%, 51.5%)" stroke-width="1.5"></path><path d="M590.13 29.19L503 99.27" stroke="hsl(228.5, 77.2%, 51.5%)" stroke-width="1.5"></path><path d="M572.04 85.49L572.04 85.49" stroke="hsl(228.5, 77.2%, 51.5%)" stroke-width="1.5"></path><path d="M572.04 85.49L575.87 163.08" stroke="hsl(228.5, 77.2%, 51.5%)" stroke-width="1.5"></path><path d="M572.04 85.49L502.47 161.47" stroke="hsl(228.5, 77.2%, 51.5%)" stroke-width="1.5"></path><path d="M575.87 163.08L575.87 163.08" stroke="hsl(228.5, 77.2%, 51.5%)" stroke-width="1.5"></path><path d="M575.87 163.08L571.35 226.78" stroke="hsl(228.5, 77.2%, 51.5%)" stroke-width="1.5"></path><path d="M575.87 163.08L519.9 234.04" stroke="hsl(228.5, 77.2%, 51.5%)" stroke-width="1.5"></path><path d="M575.87 163.08L503 99.27" stroke="hsl(228.5, 77.2%, 51.5%)" stroke-width="1.5"></path><path d="M571.35 226.78L571.35 226.78" stroke="hsl(228.5, 77.2%, 51.5%)" stroke-width="1.5"></path><path d="M575.6 302.9L575.6 302.9" stroke="hsl(228.5, 77.2%, 51.5%)" stroke-width="1.5"></path><path d="M575.6 302.9L571.35 226.78" stroke="hsl(228.5, 77.2%, 51.5%)" stroke-width="1.5"></path><path d="M562.16 440.92L562.16 440.92" stroke="hsl(228.5, 77.2%, 51.5%)" stroke-width="1.5"></path><path d="M562.16 440.92L448.04 441.71" stroke="hsl(228.5, 77.2%, 51.5%)" stroke-width="1.5"></path><path d="M562.16 440.92L575.6 302.9" stroke="hsl(228.5, 77.2%, 51.5%)" stroke-width="1.5"></path><path d="M562.16 440.92L520.53 300.4" stroke="hsl(228.5, 77.2%, 51.5%)" stroke-width="1.5"></path><path d="M562.16 440.92L424.17 379.96" stroke="hsl(228.5, 77.2%, 51.5%)" stroke-width="1.5"></path><circle r="25" cx="-18.11" cy="304.63" fill="url(#SvgjsRadialGradient3850)"></circle><circle r="25" cx="25.56" cy="365.77" fill="url(#SvgjsRadialGradient3850)"></circle><circle r="25" cx="246.64" cy="309.99" fill="url(#SvgjsRadialGradient3850)"></circle><circle r="25" cx="381.51" cy="303.03" fill="url(#SvgjsRadialGradient3850)"></circle><circle r="25" cx="519.9" cy="234.04" fill="url(#SvgjsRadialGradient3850)"></circle><circle r="5" cx="-43.2" cy="374.47" fill="#8b9ad9"></circle><circle r="5" cx="-21.1" cy="439.8" fill="#8b9ad9"></circle><circle r="5" cx="28.19" cy="307.84" fill="#8b9ad9"></circle><circle r="5" cx="35.66" cy="446.08" fill="#8b9ad9"></circle><circle r="5" cx="107.1" cy="293.76" fill="#8b9ad9"></circle><circle r="5" cx="92.71" cy="426.35" fill="#8b9ad9"></circle><circle r="5" cx="184.8" cy="316.23" fill="#8b9ad9"></circle><circle r="5" cx="171.83" cy="384.01" fill="#8b9ad9"></circle><circle r="5" cx="161.58" cy="442.59" fill="#8b9ad9"></circle><circle r="5" cx="227.04" cy="446.11" fill="#8b9ad9"></circle><circle r="5" cx="300.24" cy="242.61" fill="#8b9ad9"></circle><circle r="5" cx="312.5" cy="317.33" fill="#8b9ad9"></circle><circle r="5" cx="309.48" cy="379.84" fill="#8b9ad9"></circle><circle r="5" cx="313.9" cy="444.86" fill="#8b9ad9"></circle><circle r="5" cx="374.39" cy="181.46" fill="#8b9ad9"></circle><circle r="5" cx="372" cy="227.95" fill="#8b9ad9"></circle><circle r="5" cx="364.2" cy="387.59" fill="#8b9ad9"></circle><circle r="5" cx="365.69" cy="436.12" fill="#8b9ad9"></circle><circle r="5" cx="437.41" cy="-38.44" fill="#8b9ad9"></circle><circle r="5" cx="438.55" cy="28.09" fill="#8b9ad9"></circle><circle r="5" cx="449.5" cy="179.57" fill="#8b9ad9"></circle><circle r="5" cx="453.94" cy="238.82" fill="#8b9ad9"></circle><circle r="5" cx="445.43" cy="307.97" fill="#8b9ad9"></circle><circle r="5" cx="424.17" cy="379.96" fill="#8b9ad9"></circle><circle r="5" cx="448.04" cy="441.71" fill="#8b9ad9"></circle><circle r="5" cx="505.33" cy="26.97" fill="#8b9ad9"></circle><circle r="5" cx="503" cy="99.27" fill="#8b9ad9"></circle><circle r="5" cx="502.47" cy="161.47" fill="#8b9ad9"></circle><circle r="5" cx="520.53" cy="300.4" fill="#8b9ad9"></circle><circle r="5" cx="523.1" cy="382.55" fill="#8b9ad9"></circle><circle r="5" cx="496.57" cy="424.85" fill="#8b9ad9"></circle><circle r="5" cx="558.77" cy="-45.84" fill="#8b9ad9"></circle><circle r="5" cx="590.13" cy="29.19" fill="#8b9ad9"></circle><circle r="5" cx="572.04" cy="85.49" fill="#8b9ad9"></circle><circle r="5" cx="575.87" cy="163.08" fill="#8b9ad9"></circle><circle r="5" cx="571.35" cy="226.78" fill="#8b9ad9"></circle><circle r="5" cx="575.6" cy="302.9" fill="#8b9ad9"></circle><circle r="5" cx="562.16" cy="440.92" fill="#8b9ad9"></circle></g><defs><mask id="SvgjsMask3848"><rect width="540" height="360" fill="#ffffff"></rect></mask><linearGradient x1="8.33%" y1="-12.5%" x2="91.67%" y2="112.5%" gradientUnits="userSpaceOnUse" id="SvgjsLinearGradient3849"><stop stop-color="rgba(0, 69, 158, 1)" offset="0.15"></stop><stop stop-color="rgba(77, 124, 205, 0.59)" offset="1"></stop></linearGradient><radialGradient id="SvgjsRadialGradient3850"><stop stop-color="#ffffff" offset="0.1"></stop><stop stop-color="#1735b3" offset="0.2"></stop><stop stop-color="rgba(23, 53, 179, 0)" offset="1"></stop></radialGradient></defs></svg>